<svg
  xmlns="http://www.w3.org/2000/svg"
  width="1600"
  height="1200"
  viewBox="0 0 1600 1200"
  fill="none"
>
  <defs>
    <linearGradient id="panelFill" x1="0" x2="1" y1="0" y2="1">
      <stop offset="0%" stop-color="#ffffff" stop-opacity="0.28" />
      <stop offset="100%" stop-color="#eef1f4" stop-opacity="0.06" />
    </linearGradient>
    <linearGradient id="lineGlow" x1="0" x2="1" y1="0" y2="0">
      <stop offset="0%" stop-color="#6f7884" stop-opacity="0.08" />
      <stop offset="100%" stop-color="#6f7884" stop-opacity="0.24" />
    </linearGradient>
    <filter id="softGlow" x="-20%" y="-20%" width="140%" height="140%">
      <feGaussianBlur stdDeviation="18" />
    </filter>
  </defs>

  <g opacity="0.22">
    <path d="M120 150H1480" stroke="#8c939d" stroke-opacity="0.16" />
    <path d="M120 320H1480" stroke="#8c939d" stroke-opacity="0.12" />
    <path d="M120 490H1480" stroke="#8c939d" stroke-opacity="0.1" />
    <path d="M120 660H1480" stroke="#8c939d" stroke-opacity="0.1" />
    <path d="M120 830H1480" stroke="#8c939d" stroke-opacity="0.12" />
    <path d="M120 1000H1480" stroke="#8c939d" stroke-opacity="0.16" />
    <path d="M220 90V1110" stroke="#8c939d" stroke-opacity="0.12" />
    <path d="M440 90V1110" stroke="#8c939d" stroke-opacity="0.08" />
    <path d="M660 90V1110" stroke="#8c939d" stroke-opacity="0.08" />
    <path d="M880 90V1110" stroke="#8c939d" stroke-opacity="0.1" />
    <path d="M1100 90V1110" stroke="#8c939d" stroke-opacity="0.08" />
    <path d="M1320 90V1110" stroke="#8c939d" stroke-opacity="0.12" />
  </g>

  <circle
    cx="1035"
    cy="402"
    r="188"
    fill="#ffffff"
    fill-opacity="0.12"
    filter="url(#softGlow)"
  />

  <g opacity="0.9">
    <circle cx="1035" cy="402" r="188" stroke="#7d8692" stroke-opacity="0.22" stroke-width="2" />
    <circle cx="1035" cy="402" r="136" stroke="#7d8692" stroke-opacity="0.26" stroke-width="2" />
    <circle cx="1035" cy="402" r="88" stroke="#7d8692" stroke-opacity="0.2" stroke-width="2" />
    <circle cx="1035" cy="402" r="22" fill="#7d8692" fill-opacity="0.24" />
    <circle cx="1035" cy="402" r="8" fill="#ffffff" fill-opacity="0.5" />
  </g>

  <g stroke="url(#lineGlow)" stroke-linecap="round" stroke-linejoin="round" stroke-width="3">
    <path d="M315 270H560C610 270 635 286 668 322L795 460C820 488 844 500 888 500H930" />
    <path d="M418 476H618C665 476 701 465 736 434L856 326C885 300 913 288 955 288H980" />
    <path d="M405 748H590C657 748 713 721 754 672L861 545C895 504 929 486 984 486H1012" />
    <path d="M1118 298H1232C1273 298 1306 314 1336 346L1432 448" />
    <path d="M1128 516H1230C1287 516 1338 548 1366 598L1438 728" />
    <path d="M1048 610V736C1048 790 1030 835 994 870L912 952" />
  </g>

  <g fill="url(#panelFill)" stroke="#7d8692" stroke-opacity="0.2">
    <rect x="188" y="210" width="164" height="112" rx="22" />
    <rect x="274" y="416" width="146" height="118" rx="22" />
    <rect x="214" y="684" width="190" height="126" rx="24" />
    <rect x="1192" y="230" width="150" height="96" rx="22" />
    <rect x="1206" y="470" width="176" height="108" rx="22" />
    <rect x="806" y="900" width="212" height="112" rx="24" />
  </g>

  <g opacity="0.7">
    <rect x="212" y="236" width="88" height="10" rx="5" fill="#7d8692" fill-opacity="0.25" />
    <rect x="212" y="258" width="112" height="8" rx="4" fill="#7d8692" fill-opacity="0.18" />
    <rect x="212" y="276" width="74" height="8" rx="4" fill="#7d8692" fill-opacity="0.18" />

    <rect x="300" y="444" width="82" height="10" rx="5" fill="#7d8692" fill-opacity="0.25" />
    <rect x="300" y="466" width="96" height="8" rx="4" fill="#7d8692" fill-opacity="0.18" />
    <rect x="300" y="484" width="64" height="8" rx="4" fill="#7d8692" fill-opacity="0.18" />

    <rect x="242" y="716" width="108" height="10" rx="5" fill="#7d8692" fill-opacity="0.25" />
    <rect x="242" y="738" width="122" height="8" rx="4" fill="#7d8692" fill-opacity="0.18" />
    <rect x="242" y="756" width="92" height="8" rx="4" fill="#7d8692" fill-opacity="0.18" />

    <rect x="1218" y="252" width="80" height="10" rx="5" fill="#7d8692" fill-opacity="0.25" />
    <rect x="1218" y="274" width="94" height="8" rx="4" fill="#7d8692" fill-opacity="0.18" />

    <rect x="1230" y="498" width="114" height="10" rx="5" fill="#7d8692" fill-opacity="0.25" />
    <rect x="1230" y="520" width="126" height="8" rx="4" fill="#7d8692" fill-opacity="0.18" />
    <rect x="1230" y="538" width="88" height="8" rx="4" fill="#7d8692" fill-opacity="0.18" />

    <rect x="836" y="926" width="120" height="10" rx="5" fill="#7d8692" fill-opacity="0.25" />
    <rect x="836" y="948" width="144" height="8" rx="4" fill="#7d8692" fill-opacity="0.18" />
    <rect x="836" y="966" width="96" height="8" rx="4" fill="#7d8692" fill-opacity="0.18" />
  </g>

  <g fill="#7d8692" fill-opacity="0.35" stroke="#ffffff" stroke-opacity="0.45" stroke-width="2">
    <circle cx="312" cy="270" r="8" />
    <circle cx="418" cy="476" r="8" />
    <circle cx="405" cy="748" r="8" />
    <circle cx="668" cy="322" r="8" />
    <circle cx="736" cy="434" r="8" />
    <circle cx="754" cy="672" r="8" />
    <circle cx="930" cy="500" r="8" />
    <circle cx="980" cy="288" r="8" />
    <circle cx="1012" cy="486" r="8" />
    <circle cx="1118" cy="298" r="8" />
    <circle cx="1128" cy="516" r="8" />
    <circle cx="1048" cy="610" r="8" />
    <circle cx="1432" cy="448" r="8" />
    <circle cx="1438" cy="728" r="8" />
    <circle cx="912" cy="952" r="8" />
  </g>

  <g opacity="0.3">
    <path
      d="M924 204C971 184 1038 176 1099 191C1170 208 1230 250 1261 309"
      stroke="#7d8692"
      stroke-opacity="0.3"
      stroke-width="2"
      stroke-dasharray="10 12"
      stroke-linecap="round"
    />
    <path
      d="M861 575C827 646 826 733 866 800C894 846 940 882 997 901"
      stroke="#7d8692"
      stroke-opacity="0.3"
      stroke-width="2"
      stroke-dasharray="10 12"
      stroke-linecap="round"
    />
  </g>
</svg>
